<?xml version="1.0" standalone="no"?>
<!DOCTYPE svg PUBLIC "-//W3C//DTD SVG 20010904//EN"
 "http://www.w3.org/TR/2001/REC-SVG-20010904/DTD/svg10.dtd">
<svg version="1.0" xmlns="http://www.w3.org/2000/svg"
 width="1280.000000pt" height="640.000000pt" viewBox="0 0 1280.000000 640.000000"
 preserveAspectRatio="xMidYMid meet">
<metadata>
Created by potrace 1.15, written by Peter Selinger 2001-2017
</metadata>
<g transform="translate(0.000000,640.000000) scale(0.100000,-0.100000)"
fill="#000000" stroke="none">
<path d="M12520 6215 c0 -8 16 -32 35 -54 l35 -39 -32 -6 c-18 -3 -57 -17 -86
-31 l-53 -24 16 -31 c8 -16 18 -50 22 -75 5 -37 9 -45 27 -45 12 0 33 14 48
32 21 27 29 31 39 21 32 -32 68 0 69 59 0 34 4 40 40 58 35 18 39 23 30 40
-15 27 -12 66 5 80 27 23 4 30 -96 30 -81 0 -99 -3 -99 -15z"/>
<path d="M12755 6220 c3 -5 15 -10 26 -10 10 0 19 5 19 10 0 6 -12 10 -26 10
-14 0 -23 -4 -19 -10z"/>
<path d="M700 6139 c-36 -5 -149 -9 -251 -9 l-187 0 -15 -38 c-8 -21 -18 -85
-21 -142 -4 -58 -9 -123 -12 -145 -4 -39 -3 -41 28 -50 46 -14 49 -49 8 -100
-20 -25 -28 -44 -24 -54 10 -21 10 -59 0 -93 -8 -26 -6 -28 24 -28 17 0 45 -9
61 -21 l29 -20 10 26 c5 14 10 32 11 38 0 7 5 -1 11 -16 5 -15 15 -26 22 -24
21 7 86 139 86 174 0 37 15 73 30 73 6 0 10 -11 10 -25 0 -13 7 -43 16 -65 14
-34 19 -39 40 -34 22 6 23 4 14 -27 -6 -19 -10 -35 -10 -37 0 -2 14 8 31 22
46 39 64 34 83 -21 21 -61 20 -80 -4 -93 -16 -8 -20 -8 -20 3 0 16 -32 47 -48
47 -19 0 -14 -64 8 -122 40 -105 10 -115 -35 -12 -40 91 -99 98 -76 10 16 -65
15 -68 -18 -61 -28 6 -31 4 -42 -34 -17 -59 -31 -66 -63 -36 -15 14 -30 25
-34 25 -19 0 -74 -43 -82 -65 -8 -22 -12 -24 -35 -13 -14 6 -28 9 -30 6 -3 -3
-1 -45 5 -93 8 -63 8 -133 0 -253 -8 -111 -8 -187 -2 -226 7 -46 6 -67 -4 -92
-29 -70 -9 -113 38 -80 34 24 38 20 38 -39 0 -37 4 -56 13 -57 6 0 17 -2 22
-3 6 -2 16 -3 23 -4 7 -1 12 -16 12 -38 0 -52 10 -64 51 -61 31 3 34 1 37 -27
2 -16 12 -58 23 -91 20 -61 21 -62 62 -69 23 -3 62 -7 87 -8 34 -2 65 -14 125
-50 44 -26 99 -53 123 -60 23 -6 42 -16 42 -23 0 -23 43 -41 75 -32 17 5 45 7
63 4 24 -4 32 -1 32 11 0 12 8 15 40 10 35 -4 40 -3 40 15 0 11 14 32 30 46
39 34 38 52 -1 52 -26 0 -30 3 -27 23 2 14 11 23 26 25 25 4 29 24 7 42 -23
19 -18 30 15 30 23 0 30 -5 30 -19 0 -10 14 -35 30 -56 17 -21 30 -46 30 -56
0 -12 19 -26 58 -44 31 -14 69 -38 84 -52 26 -25 29 -25 46 -10 25 23 42 21
42 -2 0 -23 25 -51 46 -51 9 0 14 11 14 30 0 40 18 38 56 -7 35 -42 60 -38 50
8 -6 32 0 35 28 14 24 -18 37 -19 35 -2 -7 55 25 48 56 -13 29 -58 48 -69 74
-46 23 21 34 20 49 -4 11 -18 21 -21 70 -18 l57 3 -3 38 c-4 43 3 46 35 15 19
-18 26 -20 32 -9 14 23 1 49 -46 87 -50 41 -51 55 -2 25 33 -20 70 -27 81 -15
3 3 4 14 1 25 -4 13 -23 24 -62 36 -50 15 -53 17 -31 24 47 14 79 10 90 -11
17 -32 41 -39 99 -28 50 11 53 12 47 38 -4 22 0 30 17 37 18 8 22 18 22 56 1
44 0 45 -37 51 -31 5 -37 10 -40 34 -3 25 -7 27 -51 30 -26 2 -73 -4 -104 -13
-85 -25 -80 -11 12 36 38 19 46 49 13 49 -36 0 -118 32 -118 47 0 13 18 19 87
26 37 4 43 2 52 -22 11 -25 15 -26 84 -25 92 1 93 12 6 75 -34 23 -11 28 54
12 72 -18 86 -10 62 37 -10 19 -15 44 -11 60 5 26 2 28 -52 44 -31 9 -63 20
-71 25 -8 5 -25 5 -43 -1 -15 -6 -35 -7 -44 -4 -15 6 -15 8 0 31 22 34 20 52
-9 71 -14 9 -25 20 -25 25 0 13 32 -1 60 -26 14 -12 37 -30 51 -39 26 -16 27
-16 57 14 17 16 40 30 51 30 14 0 21 6 21 20 0 21 -27 40 -59 40 -28 0 -26 6
6 34 31 27 26 56 -9 56 -13 0 -47 16 -75 35 -29 19 -57 35 -63 35 -6 0 -28
-12 -50 -26 -22 -15 -44 -24 -48 -19 -4 4 3 14 16 22 21 15 31 43 15 43 -5 0
-30 -7 -56 -15 -26 -8 -61 -12 -76 -9 -25 5 -31 1 -55 -40 -33 -57 -37 -59
-85 -46 -49 13 -125 93 -94 98 68 11 93 29 93 67 0 18 -8 27 -35 36 -19 7 -35
17 -35 21 0 15 58 8 105 -12 55 -24 105 -26 105 -6 0 8 16 23 35 35 60 35 37
73 -38 63 -56 -7 -45 17 16 35 35 10 47 18 47 33 0 14 -7 20 -25 22 -14 0 -31
1 -37 2 -7 1 -19 11 -25 23 -14 24 -117 83 -145 83 -39 0 -92 -32 -156 -93
-60 -57 -102 -86 -102 -71 0 14 26 53 61 91 27 29 39 52 39 72 0 37 -21 45
-67 26 -58 -24 -66 -21 -48 21 8 20 15 40 15 45 0 15 -48 10 -64 -6 -15 -16
-36 -76 -36 -106 0 -20 -36 -67 -44 -58 -3 3 2 33 10 68 17 67 13 105 -12 115
-25 10 -34 -2 -34 -45 0 -72 -34 -39 -66 64 l-18 58 28 23 c28 21 28 24 16 58
-11 29 -11 45 -1 77 6 23 16 41 20 41 5 0 16 -20 25 -45 28 -71 86 -102 86
-44 l0 30 28 -19 c15 -11 36 -22 47 -24 17 -2 19 2 17 30 -3 32 -3 32 42 32
57 0 60 16 14 69 l-32 36 52 3 c29 2 52 7 52 13 0 14 -38 49 -53 49 -8 0 -22
9 -32 20 -17 19 -17 21 -2 38 25 28 22 37 -33 83 -28 23 -47 46 -43 49 5 4 27
12 51 18 39 9 43 8 54 -12 6 -11 28 -40 49 -63 32 -35 39 -50 39 -83 0 -44 8
-48 57 -29 24 9 30 7 46 -15 23 -32 34 -32 64 -4 32 30 37 18 18 -37 -24 -73
-1 -111 40 -65 26 29 45 25 45 -9 0 -32 22 -61 46 -61 10 0 14 14 14 55 0 30
5 55 10 55 6 0 10 -8 10 -19 0 -10 18 -39 40 -64 40 -45 44 -69 14 -81 -21 -8
-17 -42 9 -60 15 -12 18 -18 9 -22 -18 -8 -42 -59 -42 -89 0 -19 5 -25 21 -25
14 0 24 -10 32 -30 12 -32 43 -41 53 -15 11 28 20 15 16 -22 -2 -21 1 -51 7
-67 10 -25 15 -28 45 -22 28 5 36 3 50 -19 15 -23 23 -25 86 -25 l70 0 -6 27
c-7 26 -6 26 35 19 37 -6 41 -4 41 14 0 12 -16 36 -35 54 -25 22 -34 37 -29
49 8 21 23 22 30 3 3 -8 32 -24 65 -35 64 -24 68 -32 48 -90 -9 -27 -8 -35 6
-51 17 -19 17 -21 1 -39 -28 -31 -17 -55 27 -59 29 -3 37 -7 37 -23 0 -26 18
-59 31 -59 6 0 21 24 34 54 25 57 38 71 55 61 6 -4 2 -21 -11 -43 -21 -37 -21
-37 -3 -77 22 -46 51 -58 56 -24 5 36 23 32 41 -10 18 -39 65 -70 86 -56 18
10 13 24 -33 99 -57 91 -74 151 -56 195 7 17 15 30 17 27 3 -2 13 -43 23 -89
29 -132 60 -182 128 -202 31 -9 29 18 -3 57 -25 30 -33 58 -15 58 5 0 25 -16
44 -35 63 -62 111 -40 53 25 -25 27 -34 45 -30 59 5 21 6 20 35 -4 33 -28 68
-33 68 -11 0 8 -10 22 -21 30 -33 23 -18 50 24 43 17 -3 40 -8 49 -12 15 -6
16 -2 11 29 -3 22 -1 42 7 51 10 13 8 22 -15 55 -21 31 -25 44 -17 52 9 9 19
6 43 -11 34 -26 59 -22 59 9 0 35 -17 56 -70 89 -27 17 -50 36 -50 42 0 6 6 9
13 6 55 -20 57 -20 57 17 0 41 -31 70 -91 86 -47 13 -49 23 -9 47 42 24 37 40
-12 48 -24 4 -49 12 -55 17 -21 17 -15 44 12 62 33 22 22 40 -20 32 -30 -6
-33 -4 -46 31 -14 37 -15 37 -65 34 -47 -2 -53 0 -83 35 l-33 37 -79 -6 -79
-5 0 28 c0 25 -4 28 -45 33 -48 5 -63 12 -51 24 9 9 56 9 124 -1 48 -6 52 -5
52 14 0 14 11 26 34 35 19 8 37 19 41 25 18 29 -57 33 -670 36 -341 2 -744 9
-896 15 -243 11 -281 10 -321 -3 -42 -15 -51 -14 -124 3 -44 10 -81 18 -84 18
-3 -1 -34 -6 -70 -10z m1550 -419 c0 -5 -4 -10 -10 -10 -5 0 -10 5 -10 10 0 6
5 10 10 10 6 0 10 -4 10 -10z m-1000 -16 c0 -8 -4 -12 -10 -9 -5 3 -10 10 -10
16 0 5 5 9 10 9 6 0 10 -7 10 -16z m-490 -14 c0 -22 -20 -26 -38 -8 -19 19
-14 28 13 28 18 0 25 -5 25 -20z m-143 -64 c-4 -9 -11 -16 -18 -16 -6 0 -8 7
-5 16 3 9 6 21 6 27 0 8 3 8 11 0 7 -7 9 -19 6 -27z m253 -170 c0 -2 3 -11 6
-20 4 -11 0 -16 -14 -16 -20 0 -36 23 -25 34 7 7 33 8 33 2z m114 -24 c2 -4
-2 -18 -9 -31 l-12 -24 -12 22 c-7 12 -9 26 -6 31 7 12 32 13 39 2z m252 -78
c-9 -13 -21 -24 -27 -24 -15 0 -2 50 19 74 17 18 17 18 20 -3 2 -12 -4 -33
-12 -47z m1566 -94 c4 -42 0 -48 -20 -28 -17 17 -15 68 2 68 9 0 15 -14 18
-40z m-64 -64 c-2 -20 -9 -32 -20 -34 -15 -3 -18 4 -18 36 0 21 3 42 7 45 13
14 34 -17 31 -47z m-2180 -48 c4 -23 -7 -22 -38 3 l-25 20 30 -3 c19 -2 31 -9
33 -20z m2490 -16 c2 -14 -2 -22 -12 -22 -19 0 -28 14 -20 35 9 21 28 14 32
-13z m-1488 -57 c0 -10 -10 -15 -30 -15 -16 0 -30 4 -30 9 0 8 10 12 53 20 4
0 7 -6 7 -14z m-973 -60 c8 -22 -6 -33 -17 -15 -13 20 -12 30 0 30 6 0 13 -7
17 -15z m1038 -45 c3 -5 1 -10 -4 -10 -6 0 -11 5 -11 10 0 6 2 10 4 10 3 0 8
-4 11 -10z m609 -209 c7 -10 -17 -21 -45 -21 -24 0 -25 17 -1 23 29 8 41 7 46
-2z m-1254 -16 c29 -15 43 -55 20 -55 -21 0 -68 43 -63 56 6 17 8 17 43 -1z
m896 -8 c3 -8 0 -26 -5 -41 -11 -26 -11 -26 -41 -11 -34 17 -40 45 -11 45 11
0 23 5 26 10 9 14 25 12 31 -3z m-982 -13 c9 -8 16 -24 16 -35 0 -17 -3 -18
-20 -9 -12 6 -20 21 -20 35 0 29 3 30 24 9z m1184 -75 c4 -24 -25 -49 -58 -49
-23 0 -27 3 -23 20 11 42 74 64 81 29z m-751 -192 c19 -37 14 -40 -27 -19 -24
12 -42 34 -62 72 -15 30 -27 59 -28 65 0 15 100 -87 117 -118z m681 -22 c-1
-1 -18 -6 -35 -10 -26 -5 -33 -3 -33 9 0 21 64 38 68 18 2 -7 2 -15 0 -17z
m-1005 -161 c11 -11 -3 -24 -18 -18 -8 4 -12 10 -9 15 6 11 18 12 27 3z m467
-70 c0 -8 -4 -14 -10 -14 -5 0 -10 9 -10 21 0 11 5 17 10 14 6 -3 10 -13 10
-21z m-130 -40 c0 -29 -30 -61 -41 -43 -4 7 -6 17 -4 23 2 6 6 24 10 39 5 24
8 27 20 17 8 -7 15 -23 15 -36z m194 -50 c25 -25 19 -34 -24 -34 -22 0 -40 4
-40 9 0 12 29 41 40 41 5 0 16 -7 24 -16z m626 1 c0 -8 -4 -15 -10 -15 -5 0
-10 7 -10 15 0 8 5 15 10 15 6 0 10 -7 10 -15z m-1152 -78 c2 -11 -3 -17 -16
-17 -24 0 -32 8 -25 26 7 20 37 13 41 -9z"/>
<path d="M3170 6119 c-58 -26 -80 -47 -80 -76 0 -38 33 -28 87 26 59 59 56 78
-7 50z"/>
<path d="M3307 6126 c-48 -18 -104 -61 -127 -98 -15 -25 -16 -35 -7 -55 11
-24 26 -26 67 -9 10 4 20 -5 30 -27 21 -45 43 -46 59 -2 14 38 22 43 41 20 10
-12 8 -22 -9 -50 -27 -46 -27 -48 7 -31 38 20 96 82 88 95 -4 5 -1 19 5 29 10
16 9 24 -9 47 -28 35 -28 43 0 47 32 5 34 26 3 38 -36 14 -102 12 -148 -4z"/>
<path d="M3753 6133 c-115 -3 -123 -5 -134 -26 -7 -12 -23 -35 -36 -50 -23
-29 -23 -47 1 -47 8 0 31 18 52 41 47 48 67 61 88 53 21 -8 21 -24 0 -24 -30
0 -74 -56 -74 -93 l0 -35 -94 -30 c-52 -17 -112 -42 -134 -57 -46 -30 -75 -87
-70 -136 3 -31 6 -34 31 -31 25 3 27 1 27 -33 0 -42 22 -56 49 -31 27 24 31
20 31 -28 0 -28 6 -51 17 -61 16 -16 17 -16 30 1 7 10 13 28 13 41 0 24 25 93
34 93 2 0 14 -29 26 -65 21 -64 53 -115 64 -104 3 3 1 20 -4 38 -11 38 -4 61
19 60 19 -1 101 -93 101 -113 0 -9 -15 -17 -38 -21 -56 -9 -114 -46 -125 -78
-13 -39 -2 -45 31 -15 70 65 129 82 70 21 -49 -52 -61 -78 -48 -103 14 -27 24
-25 38 6 7 14 16 23 20 20 10 -6 2 -96 -9 -96 -13 0 -79 -61 -79 -72 0 -6 7
-16 17 -23 15 -11 15 -14 0 -36 -28 -40 -22 -59 19 -59 34 0 35 -1 32 -32 -5
-53 30 -44 69 17 32 49 59 71 51 44 -2 -8 -12 -40 -23 -73 l-19 -58 24 -20 25
-20 6 32 c11 52 23 55 53 10 44 -67 58 -47 40 59 l-7 44 64 -52 c39 -31 72
-50 84 -49 13 2 30 24 52 67 32 64 46 81 72 81 15 0 12 -36 -10 -108 -11 -37
-11 -44 3 -58 15 -15 16 -14 23 15 10 45 35 36 50 -17 20 -66 55 -98 55 -49 0
13 11 34 24 46 14 13 26 38 28 55 l3 31 17 -37 c9 -21 22 -38 27 -38 6 0 11
17 11 38 0 34 14 72 23 62 17 -22 47 -80 47 -93 0 -22 -61 -67 -91 -67 -18 0
-33 -14 -60 -58 -45 -70 -53 -95 -39 -122 15 -27 28 -25 36 5 3 14 15 30 26
36 19 10 20 8 13 -29 -5 -31 -1 -52 14 -87 21 -48 43 -56 49 -17 5 31 17 27
32 -8 15 -36 55 -70 81 -70 22 0 23 7 4 40 -15 27 -20 90 -7 90 5 0 18 -18 31
-40 36 -64 101 -105 101 -62 0 9 -9 28 -20 42 -11 14 -20 33 -20 43 0 20 1 20
32 8 13 -4 35 -11 51 -15 23 -5 27 -3 27 15 0 18 4 20 25 15 29 -7 33 8 10 38
-19 25 -11 36 26 36 40 0 38 22 -6 57 -21 17 -35 37 -35 51 0 29 34 62 65 62
35 0 32 30 -7 65 -34 31 -34 31 32 67 39 22 37 47 -7 69 -50 25 -65 41 -59 62
4 17 1 19 -32 13 -72 -13 -192 -19 -192 -9 0 16 23 33 45 33 23 0 63 25 55 34
-3 3 -29 -1 -57 -8 -58 -15 -85 -8 -64 18 12 14 10 16 -17 16 -17 0 -34 -4
-37 -10 -11 -18 -53 -11 -60 10 -3 11 -26 33 -49 50 -43 29 -62 55 -48 64 5 3
14 1 22 -5 43 -26 54 5 15 41 -27 26 -33 60 -11 60 8 0 27 -17 43 -37 l30 -36
38 15 38 15 -38 41 c-22 25 -35 48 -31 57 7 19 26 20 26 2 0 -22 43 -54 78
-59 35 -5 40 6 17 36 -10 13 -11 23 -5 31 7 9 6 16 -5 25 -38 31 0 55 39 25
11 -8 31 -15 45 -15 19 0 22 -3 13 -12 -9 -9 -5 -16 18 -30 19 -11 42 -42 62
-85 38 -78 61 -89 66 -30 3 34 6 37 33 37 25 0 29 -4 29 -28 0 -33 28 -78 41
-65 5 5 5 22 0 38 -8 31 -5 55 9 55 4 0 36 -22 70 -50 34 -27 72 -50 82 -50
21 0 21 -1 1 64 -6 19 -5 19 18 3 25 -18 94 -23 103 -8 9 14 -18 41 -69 69
-68 38 -68 49 3 44 45 -3 61 0 71 12 21 25 -2 44 -64 51 -54 7 -93 31 -64 39
58 15 74 23 77 37 4 21 -25 29 -104 29 -45 0 -68 5 -85 19 -22 18 -22 19 -6
44 9 15 17 35 17 47 0 13 7 20 19 20 13 0 20 10 25 32 6 32 22 58 36 58 4 0 8
-21 8 -46 1 -46 21 -88 51 -111 12 -9 18 -7 29 8 19 27 37 24 76 -16 51 -50
90 -43 51 9 -22 29 -20 60 3 51 30 -13 99 -18 105 -8 3 5 -6 27 -21 47 -18 25
-27 51 -27 76 0 31 -4 40 -20 45 -11 3 -37 21 -58 39 l-38 34 38 7 c50 8 67
19 60 39 -7 18 -34 21 -71 6 -20 -7 -33 -5 -61 12 -27 15 -59 22 -123 26 -82
4 -88 3 -97 -16 -6 -12 -25 -31 -44 -44 -49 -33 -51 -48 -4 -48 53 0 71 -13
38 -28 -37 -17 -70 -14 -150 11 -66 21 -73 22 -122 8 -43 -12 -58 -12 -80 -2
l-28 13 38 20 c22 11 67 23 100 27 l62 7 -32 17 c-40 21 -274 39 -473 36 -74
-1 -193 0 -265 3 -71 3 -185 3 -252 1z m107 -113 c14 -26 3 -45 -16 -29 -16
13 -19 49 -4 49 5 0 14 -9 20 -20z m1120 -80 c0 -11 -7 -23 -15 -27 -21 -7
-25 -2 -18 25 7 28 33 29 33 2z m-1184 -23 l27 -24 -27 -7 c-33 -8 -79 12 -84
37 -5 26 51 22 84 -6z m1002 12 c31 -11 31 -11 17 -40 -19 -37 -27 -36 -59 2
-39 45 -22 60 42 38z m-736 -39 c52 0 58 -2 58 -21 0 -11 -4 -18 -9 -15 -5 3
-37 -3 -72 -14 -49 -16 -64 -18 -71 -8 -11 18 -10 36 3 60 8 15 14 17 22 9 6
-6 37 -11 69 -11z m677 -50 c38 0 40 -14 5 -37 -25 -16 -28 -16 -71 7 -43 23
-93 72 -93 92 0 5 29 -6 64 -26 35 -20 78 -36 95 -36z m176 60 c8 -13 -14 -52
-26 -45 -15 10 -11 55 5 55 8 0 18 -4 21 -10z m-645 -35 c38 -40 54 -45 45
-14 -10 31 22 21 43 -14 16 -26 16 -29 -5 -67 -13 -21 -23 -54 -23 -72 l0 -33
-92 3 c-84 3 -98 1 -140 -22 -34 -18 -48 -22 -48 -12 0 20 21 34 70 45 25 5
52 19 62 30 11 14 28 21 52 21 41 0 48 19 16 41 -16 11 -22 27 -24 72 -2 31 0
57 3 57 4 0 22 -16 41 -35z m-340 -65 c0 -15 -7 -20 -25 -20 -18 0 -25 5 -25
20 0 15 7 20 25 20 18 0 25 -5 25 -20z m260 5 c17 -21 10 -26 -68 -47 -104
-29 -142 -33 -142 -16 0 22 21 38 51 38 15 0 31 5 34 11 18 29 105 38 125 14z
m630 -30 c0 -14 -46 -33 -56 -22 -8 7 26 37 42 37 8 0 14 -7 14 -15z m-910
-71 c0 -8 -4 -14 -10 -14 -5 0 -10 9 -10 21 0 11 5 17 10 14 6 -3 10 -13 10
-21z m-80 -109 c5 -58 6 -59 19 -33 31 61 73 42 47 -21 -19 -48 -6 -56 15 -8
9 20 22 33 37 35 12 2 22 0 22 -4 0 -16 -76 -89 -90 -86 -65 12 -72 19 -104
115 -19 56 -14 69 22 65 25 -3 27 -7 32 -63z m844 40 c20 -14 42 -25 49 -25 7
0 6 -4 -3 -10 -21 -14 -84 -12 -98 2 -16 16 -15 58 2 58 7 0 30 -11 50 -25z
m-374 -75 c0 -5 -7 -10 -15 -10 -8 0 -15 5 -15 10 0 6 7 10 15 10 8 0 15 -4
15 -10z m-200 -15 c0 -16 -35 -21 -44 -6 -8 12 4 21 26 21 10 0 18 -7 18 -15z
m38 -153 c4 -25 -13 -30 -22 -6 -9 25 -7 36 7 32 6 -3 13 -14 15 -26z m192 13
c0 -16 -35 -21 -44 -6 -8 12 4 21 26 21 10 0 18 -7 18 -15z m-296 -140 c8 -8
18 -24 21 -35 9 -28 24 -25 31 8 3 15 7 31 8 37 1 5 11 -4 22 -20 24 -37 24
-118 0 -207 -11 -38 -21 -68 -23 -68 -5 0 -65 52 -99 87 -28 28 -49 81 -38 92
2 3 18 -8 34 -24 28 -27 32 -28 57 -15 16 8 30 16 33 18 3 2 -16 22 -42 45
-54 48 -74 97 -40 97 11 0 27 -7 36 -15z m196 -31 c0 -14 -4 -23 -10 -19 -5 3
-10 15 -10 26 0 10 5 19 10 19 6 0 10 -12 10 -26z m128 -17 c17 -13 15 -47 -2
-47 -31 0 -46 13 -46 41 0 23 3 27 18 22 9 -3 23 -10 30 -16z m-478 -14 c0
-10 -4 -24 -9 -32 -12 -19 -24 3 -16 29 8 25 25 26 25 3z m320 -15 c0 -7 -5
-20 -10 -28 -12 -19 -35 2 -27 24 7 19 37 21 37 4z m-400 -6 c0 -10 -22 -32
-32 -32 -4 0 -8 9 -8 20 0 13 7 20 20 20 11 0 20 -4 20 -8z m481 -2 c21 -12
26 -40 6 -40 -17 0 -37 20 -37 37 0 16 5 16 31 3z m297 -208 c4 -24 -7 -29
-26 -10 -18 18 -15 40 6 36 9 -2 18 -13 20 -26z m160 -23 c25 -29 42 -60 42
-74 0 -24 -3 -25 -65 -25 -36 0 -65 4 -65 9 0 15 30 41 46 41 21 0 17 10 -11
32 -30 23 -35 68 -7 67 9 0 36 -23 60 -50z"/>
<path d="M11665 6124 c-22 -8 -76 -21 -121 -28 -44 -8 -103 -21 -131 -30 -46
-15 -52 -15 -89 0 -92 40 -208 34 -264 -13 -35 -29 -37 -39 -9 -46 34 -9 12
-29 -24 -22 -71 14 -87 27 -47 38 11 3 20 12 20 21 0 12 -10 16 -39 16 -33 0
-40 4 -45 25 -8 31 -37 33 -77 4 l-30 -21 -49 21 c-56 24 -136 27 -191 7 -30
-11 -41 -10 -63 1 -14 8 -55 16 -91 20 -70 6 -70 6 -88 -68 -6 -23 -3 -27 23
-33 27 -5 30 -9 24 -31 -6 -24 -5 -24 26 -14 26 9 41 8 87 -10 59 -22 74 -21
54 3 -20 23 -6 33 56 41 75 9 79 12 52 41 l-22 24 55 0 c60 0 84 -16 75 -49
-3 -15 2 -20 24 -25 25 -5 29 -10 29 -40 0 -19 -5 -38 -11 -42 -6 -3 -59 -10
-118 -15 -87 -6 -114 -5 -152 9 -45 15 -51 15 -135 -7 -49 -13 -118 -30 -154
-37 -90 -20 -160 -44 -190 -64 -24 -17 -80 -17 -80 -1 0 12 42 47 87 71 44 24
59 45 42 56 -6 3 -45 15 -86 25 l-74 19 -30 -22 c-16 -12 -34 -37 -41 -55 -7
-18 -17 -33 -23 -33 -17 0 -45 -34 -45 -53 0 -20 23 -27 83 -25 34 2 52 -3 64
-16 17 -17 16 -19 -27 -57 -57 -50 -174 -111 -270 -140 -62 -19 -98 -24 -205
-24 -176 0 -232 17 -297 92 -68 76 -62 116 12 78 26 -14 29 -13 43 9 11 16 36
29 81 41 36 10 66 21 66 24 0 4 -7 17 -16 29 -10 15 -14 32 -9 49 13 52 -43
57 -137 13 -34 -16 -70 -30 -78 -30 -8 0 -30 -23 -48 -51 l-34 -51 23 -24 c14
-15 19 -28 13 -33 -5 -6 -64 -6 -147 -1 -128 8 -140 11 -169 35 -25 21 -38 25
-62 20 -92 -19 -94 -19 -151 19 -46 30 -55 41 -55 65 0 61 28 84 115 96 28 3
62 9 77 11 23 5 27 1 33 -26 5 -24 11 -30 23 -24 10 3 40 15 67 26 28 11 51
21 53 23 2 1 -9 16 -23 33 -22 26 -23 31 -10 42 44 36 -9 60 -94 42 -75 -16
-149 -55 -214 -113 -48 -42 -55 -54 -59 -94 -3 -25 -8 -48 -10 -51 -3 -2 -22
2 -44 9 -52 18 -55 44 -9 85 19 18 35 37 35 42 0 16 -44 22 -74 10 -23 -8 -33
-7 -57 11 -16 11 -44 23 -63 26 -29 4 -35 2 -41 -17 -4 -12 -21 -37 -38 -56
-34 -40 -27 -54 26 -54 19 0 30 -6 34 -18 3 -14 15 -18 56 -19 41 -1 69 -10
128 -42 108 -58 180 -81 259 -81 39 0 84 -7 105 -16 27 -11 52 -13 90 -9 60 8
85 -9 38 -25 -15 -5 -53 -23 -84 -40 -53 -28 -57 -29 -105 -16 -27 8 -89 30
-139 49 -106 41 -155 53 -155 38 0 -6 -16 -29 -37 -51 -22 -26 -33 -44 -27
-50 5 -5 42 -19 82 -31 l72 -22 40 27 c66 44 93 39 253 -47 73 -39 88 -39 105
-1 10 21 18 24 71 24 33 0 66 3 75 6 20 8 21 38 1 54 -22 18 -18 48 6 55 29 9
59 -8 89 -52 34 -50 58 -62 147 -78 193 -35 456 4 541 79 20 18 66 50 102 71
36 21 94 59 130 84 46 32 88 52 145 67 44 12 116 31 159 43 44 11 93 21 110
21 38 0 76 -10 76 -19 0 -14 -62 -42 -136 -61 -42 -10 -98 -32 -123 -47 -25
-16 -76 -41 -113 -57 -39 -16 -97 -53 -138 -87 -38 -32 -103 -86 -142 -120
-77 -64 -198 -129 -241 -129 -29 0 -87 -62 -113 -121 -9 -20 -30 -44 -47 -54
-17 -10 -77 -53 -132 -96 -162 -123 -252 -165 -471 -219 -65 -16 -121 -35
-125 -41 -4 -7 -27 -15 -50 -19 -24 -4 -65 -13 -90 -20 -42 -12 -50 -11 -91 8
-46 23 -141 29 -183 13 -14 -6 -26 -2 -41 13 -11 12 -33 31 -48 44 -25 21 -29
22 -45 8 -10 -9 -32 -16 -49 -16 -24 0 -37 -8 -59 -37 -46 -60 -107 -93 -174
-93 -112 0 -309 83 -309 130 0 14 -7 20 -22 20 -33 1 -101 34 -127 61 -49 51
-65 99 -64 184 0 44 5 93 12 108 10 26 8 31 -24 60 -21 18 -35 40 -35 54 0 13
-13 47 -30 76 -35 63 -37 78 -10 102 16 14 20 15 20 4 0 -14 20 -20 177 -51
34 -7 66 -9 69 -5 4 4 -8 26 -26 48 -19 24 -33 54 -34 70 -1 25 -5 29 -31 29
-16 0 -43 9 -60 20 -16 11 -45 20 -64 20 -28 0 -32 -3 -26 -17 4 -10 10 -30
13 -45 4 -27 3 -28 -44 -28 -27 0 -67 -5 -88 -10 -36 -8 -43 -6 -73 21 -19 16
-37 29 -40 29 -4 0 -16 -11 -28 -26 -19 -24 -21 -25 -55 -11 -19 8 -61 21 -92
27 -53 12 -60 17 -84 57 -32 55 -76 83 -131 83 -48 0 -93 -17 -93 -36 0 -20
41 -44 75 -44 36 0 71 -22 61 -38 -3 -6 -48 -27 -100 -47 l-94 -36 -48 30
c-26 17 -59 31 -72 31 -24 0 -24 -1 -8 -25 21 -32 22 -32 -21 -40 -52 -9 -73
-22 -73 -45 0 -16 10 -20 60 -26 45 -5 63 -12 71 -25 13 -26 38 -12 76 40 40
57 93 79 93 40 0 -18 3 -19 15 -9 11 9 22 9 49 -1 32 -12 40 -11 74 9 53 30
177 55 203 42 10 -6 19 -13 19 -15 0 -13 -64 -34 -121 -41 -71 -7 -89 -19
-131 -83 -21 -34 -28 -57 -28 -93 0 -26 4 -48 10 -48 5 0 21 22 34 48 30 60
52 80 68 64 19 -19 26 -15 47 26 10 20 30 47 43 59 28 26 105 63 133 62 20 0
20 0 1 -14 -48 -36 -76 -67 -71 -75 4 -6 31 -10 61 -10 42 0 54 -3 54 -15 0
-27 28 -28 63 -1 41 31 60 32 98 5 25 -18 59 -66 59 -84 0 -3 -24 -5 -54 -5
-78 0 -156 -17 -193 -43 -38 -25 -42 -37 -13 -37 34 0 22 -19 -17 -29 -90 -22
-89 -22 -128 9 -44 35 -51 36 -73 11 -10 -11 -43 -27 -74 -35 -32 -9 -58 -22
-58 -29 0 -7 12 -29 26 -50 14 -21 28 -54 31 -73 7 -42 27 -44 47 -5 19 36 52
46 66 20 16 -28 25 -24 45 21 24 53 85 107 130 116 20 3 38 4 41 2 2 -3 -3
-22 -11 -43 -9 -20 -14 -39 -11 -42 2 -3 25 7 51 22 37 22 54 27 91 22 34 -3
44 -1 44 10 0 7 13 36 28 63 l28 49 29 -23 28 -23 -13 -61 c-24 -116 5 -204
103 -308 32 -35 56 -67 53 -72 -23 -37 -135 -54 -211 -33 -66 19 -79 34 -72
84 3 23 9 49 12 58 4 10 -10 18 -57 31 -106 29 -114 27 -94 -23 6 -13 -1 -18
-30 -22 -34 -6 -74 -31 -74 -48 0 -11 88 -39 148 -46 38 -4 61 -13 82 -33 70
-65 240 -65 324 1 l26 21 89 -36 c49 -20 110 -39 135 -42 25 -4 46 -10 46 -15
0 -4 -31 -36 -70 -70 -38 -35 -70 -67 -70 -71 0 -4 11 -8 25 -8 24 0 25 -3 25
-55 0 -72 16 -72 71 1 l43 56 13 -26 c15 -29 44 -34 67 -11 20 20 30 76 22
125 l-6 40 175 0 c210 0 338 13 451 46 47 13 98 24 114 24 17 0 53 11 81 25
27 14 119 43 203 64 131 33 161 43 198 73 23 20 90 64 148 100 173 105 179
111 221 176 45 71 81 97 147 107 31 5 54 16 71 34 15 16 41 36 60 45 18 10 61
43 95 75 34 31 89 76 123 99 34 23 66 48 70 55 11 17 190 98 242 108 24 5 66
22 95 38 81 46 225 91 291 91 76 0 69 -19 -18 -45 -68 -20 -112 -48 -102 -64
3 -5 23 -12 45 -16 38 -6 53 -26 30 -40 -5 -3 -10 -15 -10 -26 0 -24 29 -25
71 -4 27 14 32 14 51 0 48 -33 120 -9 88 30 -20 24 -7 47 40 75 58 34 58 52 0
63 -84 15 -89 17 -84 31 8 20 48 34 125 45 37 5 79 16 95 24 36 18 98 32 232
53 57 8 118 22 136 29 18 8 89 21 157 30 144 18 217 37 250 64 20 16 22 22 11
33 -20 20 -158 22 -207 2z m-3025 -148 c0 -19 -14 -28 -34 -20 -25 10 -19 34
9 34 15 0 25 -6 25 -14z m2356 -11 c18 -14 18 -14 -4 -15 -13 0 -37 -7 -54
-16 -30 -16 -78 -12 -78 6 0 15 52 39 86 40 16 0 39 -7 50 -15z m-2026 -325
c0 -5 -12 -10 -27 -10 -22 0 -25 2 -13 10 20 13 40 13 40 0z m-492 -866 c33
-9 27 -20 -20 -33 -51 -13 -406 -37 -415 -27 -14 14 13 20 115 27 59 4 127 14
152 22 47 16 129 21 168 11z"/>
<path d="M8403 6088 c-29 -5 -53 -14 -53 -20 0 -5 18 -17 40 -25 40 -16 49
-27 30 -38 -5 -3 -10 -13 -10 -21 0 -16 19 -14 103 13 l48 15 -3 41 -3 42 -50
2 c-27 0 -74 -3 -102 -9z"/>
<path d="M5645 5981 c-72 -41 -95 -47 -95 -24 0 11 4 23 9 29 6 5 -13 9 -52 9
-58 0 -62 -2 -71 -27 -15 -44 9 -104 64 -159 27 -27 54 -49 60 -49 5 0 10 15
10 34 0 35 0 35 28 20 32 -16 62 -18 62 -4 0 6 -7 22 -16 36 -9 13 -14 27 -11
30 12 12 43 -7 65 -40 24 -36 63 -55 95 -48 26 5 17 33 -17 52 -39 21 -43 36
-11 44 49 12 21 66 -34 66 -12 0 -21 5 -21 10 0 6 16 10 35 10 37 0 43 8 23
28 -20 20 -70 13 -123 -17z"/>
<path d="M12335 5858 c-9 -28 -34 -58 -49 -58 -7 0 -20 14 -29 30 -21 34 -52
40 -60 10 -9 -33 11 -94 37 -117 31 -26 91 -45 122 -37 22 6 97 -26 109 -46 4
-7 -56 -10 -178 -10 -150 0 -198 -4 -261 -20 -139 -35 -255 -99 -417 -230 -24
-19 -56 -66 -94 -139 -33 -64 -72 -124 -92 -141 -33 -30 -35 -30 -146 -30
-161 0 -210 -15 -536 -166 -64 -30 -94 -54 -216 -174 l-142 -140 -54 0 c-30 0
-74 -5 -98 -11 -42 -9 -44 -9 -78 26 -39 40 -52 42 -83 17 -20 -16 -21 -19 -6
-31 24 -20 20 -41 -9 -41 -25 0 -65 -31 -65 -50 0 -16 37 -30 81 -30 32 0 59
10 109 40 65 39 130 61 130 43 0 -24 -101 -98 -208 -152 -75 -38 -87 -41 -133
-35 -46 6 -51 5 -56 -15 -7 -27 -22 -27 -64 4 -74 54 -95 65 -124 65 -48 0
-61 -13 -47 -46 7 -14 11 -27 10 -29 -14 -9 -113 -28 -152 -29 -64 -1 -79 19
-47 60 l22 29 -40 17 c-22 9 -64 33 -93 52 -60 41 -76 43 -109 17 -14 -10 -36
-21 -49 -23 -36 -4 -31 -30 9 -50 55 -27 59 -36 22 -49 -54 -19 -31 -34 53
-35 52 -1 82 -6 94 -17 37 -32 71 -41 175 -45 101 -4 107 -6 92 -22 -26 -29
-19 -43 19 -36 23 4 54 0 93 -13 54 -19 85 -25 107 -22 5 0 -1 12 -14 27 l-24
25 32 25 c18 14 32 35 32 46 0 17 4 19 33 14 59 -11 127 20 316 144 101 66
186 120 190 120 4 0 15 16 26 35 42 79 220 217 392 304 173 87 385 123 450 76
16 -12 14 -16 -21 -56 l-39 -42 27 -19 c14 -11 26 -29 26 -40 0 -57 -192 -342
-298 -440 -104 -97 -302 -209 -522 -296 -112 -44 -118 -45 -260 -52 -123 -5
-151 -9 -184 -28 -22 -11 -60 -24 -85 -28 -25 -4 -54 -11 -64 -16 -12 -6 -23
-5 -33 3 -12 10 -22 10 -50 0 -27 -10 -46 -10 -92 0 -87 19 -262 13 -356 -11
-90 -23 -146 -53 -195 -104 -43 -44 -55 -45 -207 -5 -144 37 -209 41 -249 15
-26 -17 -27 -20 -11 -32 16 -11 13 -16 -37 -44 -127 -71 -110 -124 29 -89 41
11 47 10 68 -10 31 -29 50 -26 63 8 8 23 20 32 54 41 24 7 50 14 58 16 11 3
10 9 -3 29 -9 13 -12 26 -8 29 4 2 37 -2 72 -9 108 -24 142 -20 183 18 69 66
184 104 342 114 109 6 235 -3 235 -18 0 -5 -21 -15 -46 -21 -35 -10 -50 -20
-61 -43 -9 -16 -31 -43 -49 -58 -19 -16 -39 -37 -45 -48 -9 -17 -5 -22 28 -35
20 -9 43 -23 50 -33 11 -14 15 -12 42 19 26 30 32 33 48 22 47 -32 67 -23 83
40 9 30 7 52 -5 99 -8 33 -15 62 -15 65 0 2 13 1 29 -2 45 -9 200 22 320 63
13 5 14 3 4 -8 -19 -20 -16 -29 11 -29 36 0 39 -14 16 -59 -30 -61 -27 -81 14
-81 22 0 46 -10 71 -30 21 -17 40 -28 43 -26 2 3 7 20 11 38 7 32 8 33 54 30
60 -5 62 14 11 71 l-37 40 33 16 c40 19 44 35 10 39 -60 7 -47 16 85 61 79 26
188 73 249 106 82 44 108 54 102 40 -30 -80 -37 -114 -26 -134 15 -30 37 -26
55 9 19 37 52 40 61 6 8 -35 38 -59 63 -51 14 4 25 23 36 60 12 42 20 55 35
55 27 0 35 18 16 39 -24 27 -19 38 20 44 40 7 64 23 64 42 0 19 -55 35 -118
35 l-55 0 112 113 c130 131 214 239 271 354 39 77 41 84 29 117 -17 46 -1 76
63 124 35 26 48 44 53 71 10 52 38 102 98 173 29 35 58 71 63 80 16 28 147
118 189 129 22 6 62 22 90 37 38 19 68 27 130 30 l80 4 -83 -42 c-93 -47 -198
-142 -276 -250 l-46 -65 22 -16 22 -17 -38 -99 c-73 -187 -151 -335 -215 -404
-32 -36 -74 -73 -94 -83 -41 -23 -111 -124 -127 -184 -8 -33 -8 -52 0 -75 31
-86 31 -85 -6 -103 -20 -9 -46 -33 -60 -53 l-24 -36 31 -6 c51 -11 139 -77
139 -105 0 -17 6 -24 20 -24 27 0 38 26 30 71 -6 31 -4 42 9 52 29 20 32 35
16 66 -23 46 -20 71 10 71 27 0 31 10 15 41 -13 23 -47 25 -96 4 -20 -8 -40
-12 -45 -9 -18 11 -9 99 15 149 22 48 82 112 94 100 3 -3 -3 -11 -13 -19 -25
-18 -11 -36 29 -36 45 0 96 -19 96 -36 0 -20 8 -18 47 16 18 16 39 30 45 30
11 0 6 99 -8 133 -8 21 -36 22 -75 2 l-29 -16 42 64 c24 35 61 98 83 140 34
64 45 77 71 81 62 12 129 -15 292 -117 65 -41 141 -127 167 -191 27 -63 13
-150 -29 -185 -22 -19 -38 -2 -54 56 -12 41 -12 41 -55 36 -75 -8 -87 -12 -87
-33 0 -13 7 -20 20 -20 26 0 25 -17 -2 -41 -18 -15 -20 -20 -9 -28 19 -12 135
-23 167 -15 24 6 26 5 19 -17 -25 -78 -26 -79 -81 -50 -29 16 -41 17 -60 9
-23 -11 -37 -36 -32 -57 2 -6 -8 -17 -22 -24 -38 -19 -36 -41 4 -55 20 -7 44
-26 55 -41 16 -23 31 -29 72 -34 52 -6 89 -29 89 -53 0 -7 -25 -32 -55 -54
-30 -22 -55 -45 -55 -49 0 -5 14 -14 30 -20 34 -11 36 -18 15 -45 -16 -21 -20
-72 -7 -80 16 -10 82 17 82 33 0 9 5 23 10 31 8 13 14 10 36 -13 24 -26 28
-27 42 -14 12 12 12 21 3 48 -6 17 -11 41 -11 53 0 12 -13 47 -28 78 -20 42
-39 65 -77 90 -63 42 -64 60 -3 73 67 14 74 25 38 60 -16 16 -30 39 -30 51 0
12 14 62 32 111 39 110 40 166 4 227 -14 24 -31 57 -36 72 l-11 27 53 -6 c123
-13 228 -79 281 -174 28 -53 27 -63 -10 -63 -22 0 -23 -3 -23 -69 0 -127 16
-156 60 -109 20 22 21 22 50 4 37 -21 50 -14 50 29 0 21 9 44 25 63 29 34 26
38 -47 70 -41 18 -51 28 -72 76 -54 121 -153 187 -313 208 -82 11 -94 16 -173
69 -110 73 -172 104 -243 120 -59 14 -59 14 -53 47 2 18 17 62 31 99 21 51 26
78 22 112 l-5 46 82 80 c87 85 183 148 254 168 23 6 42 16 42 22 0 6 6 20 14
30 11 16 28 19 102 20 49 0 118 5 153 9 83 12 80 -5 -9 -54 -74 -41 -84 -58
-41 -66 35 -7 81 -49 81 -74 0 -29 11 -30 47 -2 l35 26 24 -27 c29 -34 30 -57
4 -99 -28 -46 -26 -75 4 -75 13 0 40 -12 58 -27 52 -39 65 -35 71 27 4 28 9
75 13 103 4 32 2 59 -5 73 l-12 21 -40 -20 -39 -21 -11 28 c-6 16 -17 45 -25
66 l-13 37 40 21 c53 27 45 43 -22 47 -30 2 -58 7 -63 12 -17 17 25 50 83 66
79 23 101 39 101 74 0 17 -4 30 -8 30 -5 0 -46 -11 -92 -25 -103 -31 -158 -32
-194 -4 -34 27 -33 46 4 54 17 4 30 10 30 15 0 4 -24 27 -52 51 -90 75 -85 73
-93 47z"/>
<path d="M6659 5410 c-60 -43 -101 -56 -139 -42 -21 8 -33 2 -86 -40 -62 -50
-84 -81 -84 -120 l0 -21 24 22 c18 17 45 26 103 34 98 13 123 28 123 73 0 29
7 39 43 64 76 53 82 58 76 64 -3 3 -30 -12 -60 -34z"/>
<path d="M4956 5017 c-14 -20 -46 -149 -46 -182 0 -22 60 -59 94 -58 29 1 31
-1 33 -39 3 -80 44 -133 63 -82 6 14 10 31 10 39 0 25 21 27 45 5 27 -25 32
-20 37 34 2 25 9 31 37 39 44 11 60 -5 26 -27 l-25 -17 20 -39 c20 -40 45 -60
74 -60 12 0 16 10 16 40 0 44 5 47 46 26 31 -17 44 -13 44 14 0 24 -39 54 -98
76 -55 20 -98 54 -81 65 8 5 8 8 0 13 -19 12 -12 26 14 26 16 0 42 -15 68 -39
51 -46 78 -61 111 -61 35 0 33 20 -6 51 l-32 27 34 17 c32 16 33 18 15 31 -38
28 -86 28 -195 1 -58 -15 -122 -27 -143 -27 -35 0 -37 2 -37 33 0 52 -10 59
-68 51 -59 -7 -67 3 -27 34 30 24 31 32 5 32 -11 0 -26 -10 -34 -23z"/>
<path d="M5195 4998 c-27 -15 -65 -50 -65 -60 0 -16 51 -8 116 19 58 24 64 29
48 40 -22 16 -72 16 -99 1z"/>
<path d="M10085 4840 c-25 -27 -31 -97 -12 -143 14 -31 21 -37 47 -37 42 0 67
15 85 50 20 39 19 41 -11 29 -20 -7 -32 -6 -50 6 -20 13 -24 24 -24 65 0 54
-7 61 -35 30z"/>
<path d="M4977 3829 c-55 -44 -98 -50 -163 -23 -54 22 -242 16 -297 -10 -42
-21 -63 -18 -179 27 -67 26 -68 26 -68 5 0 -19 28 -50 116 -126 l39 -34 -27
-23 c-26 -22 -29 -23 -75 -9 -89 28 -178 -4 -280 -99 -34 -33 -63 -63 -63 -67
0 -13 155 -78 202 -85 40 -5 54 -2 90 19 28 16 48 22 57 17 11 -7 4 -24 -33
-80 -76 -114 -141 -163 -281 -214 -38 -14 -122 -50 -185 -80 l-115 -55 -147
-11 c-81 -6 -230 -24 -330 -40 -101 -17 -262 -35 -358 -41 -193 -12 -242 -21
-302 -51 -30 -16 -43 -18 -53 -9 -9 7 -29 9 -52 6 -35 -6 -40 -4 -61 29 -25
39 -52 132 -52 180 0 22 -15 47 -58 96 -139 161 -253 220 -429 220 -82 1 -100
-3 -144 -25 -30 -16 -58 -24 -72 -21 -15 4 -41 -6 -82 -31 -33 -20 -85 -47
-115 -61 -79 -35 -126 -83 -82 -83 34 0 32 -12 -13 -74 -59 -83 -68 -109 -47
-130 15 -15 15 -19 -1 -63 -18 -51 -23 -114 -8 -97 5 5 16 34 25 65 9 31 25
67 36 80 l19 24 1 -30 c2 -111 10 -160 29 -179 30 -30 36 -13 17 52 -23 83
-20 118 14 191 35 74 50 75 25 1 -17 -50 -14 -100 5 -100 6 0 10 26 10 57 0
56 1 58 53 108 227 220 463 274 613 142 55 -48 77 -90 104 -198 12 -46 31
-112 42 -147 34 -106 13 -149 -104 -217 -93 -54 -125 -89 -139 -150 -11 -48
-10 -56 19 -121 23 -53 33 -95 42 -184 17 -175 31 -221 127 -422 47 -97 61
-118 78 -118 27 0 72 -34 80 -60 8 -26 -102 -214 -168 -286 -41 -45 -47 -56
-38 -73 6 -11 11 -36 11 -55 0 -40 5 -41 61 -25 31 10 44 9 73 -5 19 -9 83
-25 141 -36 58 -10 120 -27 138 -38 31 -18 32 -21 30 -81 -2 -61 -1 -63 20
-56 78 25 103 -14 32 -51 -33 -17 -41 -26 -43 -54 -7 -72 6 -100 89 -186 43
-45 79 -87 79 -93 0 -6 4 -11 9 -11 6 0 13 20 17 45 3 25 10 48 15 51 5 3 30
-6 56 -20 25 -15 47 -25 49 -23 2 1 4 99 6 217 2 154 -1 230 -10 266 l-13 51
-94 37 c-112 45 -172 85 -191 131 -16 39 -11 58 27 103 16 17 36 58 45 90 18
65 42 95 72 90 20 -3 20 -3 1 -73 -11 -38 -23 -90 -28 -113 -9 -43 -8 -44 25
-58 46 -19 93 -18 276 8 152 21 159 21 219 4 43 -12 65 -14 73 -6 12 12 36 13
36 2 0 -5 -16 -30 -36 -55 -52 -66 -50 -105 7 -163 53 -54 130 -94 181 -94 32
0 38 3 38 21 0 11 -5 30 -11 41 -20 36 5 46 54 20 23 -12 46 -22 51 -22 14 0
-1 87 -39 219 -19 69 -35 133 -35 144 0 33 -39 75 -86 93 -37 14 -67 16 -177
12 -73 -3 -138 -4 -144 -1 -19 7 -16 30 7 53 23 23 96 27 148 9 29 -10 39 -6
131 46 128 72 188 95 253 95 70 0 138 -33 138 -66 0 -14 9 -42 20 -64 11 -22
20 -48 20 -59 0 -27 -42 -38 -85 -22 -30 11 -38 9 -93 -24 -55 -32 -102 -76
-102 -95 0 -5 12 -12 28 -18 15 -5 54 -30 87 -56 103 -80 180 -87 231 -18 15
20 63 72 106 115 122 119 157 222 108 317 -30 58 -26 99 11 112 39 15 67 -33
84 -139 6 -40 9 -43 38 -43 18 -1 46 -7 62 -14 26 -11 34 -10 60 5 16 10 50
21 75 25 31 4 56 16 80 39 32 30 70 55 84 55 3 0 6 -14 6 -30 0 -47 -33 -102
-96 -159 l-57 -52 13 -38 c7 -22 9 -44 6 -50 -4 -6 -36 -11 -76 -11 -64 0 -70
-2 -94 -30 -47 -56 -48 -166 -2 -265 29 -65 48 -76 80 -46 29 27 37 26 66 -4
13 -14 29 -25 36 -25 15 0 55 64 120 189 27 52 68 113 90 135 l41 42 6 114 c6
146 48 274 113 353 30 36 30 63 0 132 -28 62 -66 105 -94 105 -10 0 -49 -16
-88 -35 -38 -19 -77 -35 -86 -35 -30 0 -21 38 16 73 19 18 37 42 41 54 3 12
15 25 26 28 12 4 19 15 19 31 0 14 14 57 31 96 21 47 29 81 26 102 -3 23 3 39
24 66 36 44 56 102 65 182 6 62 7 64 84 140 l77 77 70 -6 c116 -10 220 25 287
95 35 37 42 92 24 179 l-13 61 -155 130 c-90 75 -174 155 -200 190 -35 47 -55
63 -93 77 -70 25 -76 46 -32 98 70 81 57 126 -18 66z m-3437 -646 c0 -5 -34
-41 -75 -81 -54 -53 -75 -68 -75 -55 0 30 101 142 128 143 12 0 22 -3 22 -7z
m83 -25 c-18 -18 -35 -29 -39 -26 -7 8 44 58 60 58 6 0 -4 -14 -21 -32z"/>
<path d="M1901 3804 c0 -11 3 -14 6 -6 3 7 2 16 -1 19 -3 4 -6 -2 -5 -13z"/>
<path d="M11364 3268 c-29 -35 -99 -175 -109 -220 -5 -20 -2 -31 14 -45 30
-25 28 -82 -4 -117 -25 -27 -33 -30 -59 -20 -23 9 -20 22 14 54 51 48 35 64
-34 35 -46 -19 -57 -13 -43 24 8 23 6 36 -12 72 -12 24 -32 57 -46 73 l-24 30
-11 -26 c-10 -20 -9 -37 4 -81 20 -68 20 -77 2 -77 -8 0 -69 36 -135 80 -155
102 -218 134 -311 155 -41 9 -87 23 -102 31 -63 34 -145 1 -115 -47 10 -16 24
-19 86 -19 89 0 146 -16 171 -47 13 -17 28 -23 56 -23 23 0 46 -7 58 -19 12
-11 57 -39 101 -62 44 -23 92 -53 107 -65 l27 -22 -50 -12 c-114 -28 -167
-124 -124 -228 31 -73 99 -120 189 -129 89 -9 169 25 200 86 13 23 12 35 -1
84 -9 31 -14 60 -11 63 8 7 74 -21 82 -35 4 -6 -2 -28 -14 -50 -11 -22 -20
-46 -20 -54 0 -8 -23 -60 -50 -116 -40 -81 -52 -118 -59 -179 -5 -42 -16 -94
-25 -115 -9 -20 -63 -87 -121 -147 -57 -60 -111 -123 -120 -139 -14 -28 -14
-31 4 -41 11 -5 28 -10 38 -10 31 0 42 -19 31 -51 -16 -47 -5 -59 51 -59 49 0
53 -2 115 -65 37 -37 73 -65 84 -65 12 0 32 -4 46 -10 35 -13 186 -168 186
-190 0 -26 -44 -76 -89 -101 -31 -17 -46 -38 -87 -122 -27 -55 -66 -127 -86
-159 -34 -52 -41 -58 -72 -58 -38 0 -70 -33 -86 -91 -13 -43 -4 -56 41 -62 25
-3 76 -28 137 -66 82 -52 103 -61 142 -61 94 0 106 53 18 78 -41 11 -46 16
-51 47 -3 19 -3 50 0 69 5 32 3 35 -23 38 -15 2 -29 8 -31 14 -2 5 47 64 109
130 149 158 198 216 246 293 l40 64 -29 37 c-16 20 -52 90 -80 156 -28 65 -53
125 -56 132 -11 26 176 11 275 -23 9 -3 2 -25 -24 -77 -35 -68 -38 -81 -44
-193 -7 -122 -19 -163 -56 -196 -11 -9 -26 -18 -34 -21 -18 -6 -40 -111 -30
-147 l7 -26 121 2 c146 2 207 18 252 69 16 19 30 46 30 59 0 21 -5 25 -29 25
-16 0 -48 -7 -72 -15 -34 -12 -45 -13 -48 -3 -2 6 -15 23 -29 37 -24 24 -25
27 -13 82 6 32 29 98 51 147 22 50 45 114 50 144 6 30 23 71 40 95 17 23 30
48 30 55 0 8 -13 35 -30 61 -50 80 -155 133 -337 172 l-82 18 -10 49 c-17 79
-28 74 110 52 34 -5 39 -3 65 33 43 59 86 103 116 119 23 12 26 17 18 43 -10
37 -5 42 28 30 17 -7 42 -6 76 1 57 12 60 9 70 -53 8 -45 22 -77 36 -77 12 0
37 58 45 104 6 31 3 36 -58 84 -35 28 -76 67 -91 86 -24 32 -30 34 -79 33 -29
0 -67 5 -85 12 -27 11 -31 18 -34 58 -3 43 -5 45 -61 76 -49 26 -62 29 -78 19
-23 -15 -49 -16 -49 -2 0 22 40 48 86 54 94 14 94 14 94 60 0 23 -5 47 -10 52
-7 7 1 25 25 55 19 24 35 49 35 55 0 6 -19 16 -42 23 -74 23 -124 97 -85 129
7 6 38 20 70 32 62 23 73 45 28 55 -31 7 -61 -5 -127 -50 -20 -14 -47 -25 -60
-25 -28 0 -76 39 -104 85 -12 19 -25 35 -30 35 -4 0 -21 -15 -36 -32z m5 -394
c53 -68 -13 -114 -76 -54 -24 22 -22 46 5 68 25 19 49 14 71 -14z"/>
<path d="M7337 2895 c51 -92 40 -235 -23 -302 -28 -30 -36 -34 -49 -23 -13 11
-15 8 -15 -17 0 -44 -34 -83 -73 -83 -24 0 -28 3 -19 12 14 14 17 148 3 148
-54 0 -91 -55 -91 -135 0 -25 -2 -45 -4 -45 -3 0 -40 24 -83 53 -116 80 -245
147 -263 138 -8 -5 -55 -11 -104 -15 -50 -3 -101 -12 -116 -19 -21 -11 -31
-11 -55 -1 -50 21 -96 16 -170 -19 -39 -19 -87 -39 -108 -46 -28 -9 -52 -30
-84 -71 -32 -41 -58 -64 -91 -78 -66 -27 -159 -100 -238 -185 -86 -93 -167
-162 -226 -193 -56 -28 -58 -29 -58 -9 0 34 -33 76 -88 112 -37 25 -64 51 -75
76 -20 40 -37 41 -37 1 0 -13 -4 -24 -10 -24 -5 0 -10 15 -10 34 0 33 -23 56
-35 35 -8 -12 3 -66 21 -101 14 -26 13 -28 -6 -28 -11 0 -20 -5 -20 -12 0 -20
31 -47 47 -41 11 4 14 2 11 -8 -3 -8 -13 -13 -23 -11 -11 2 -14 -1 -10 -8 5
-8 21 -10 41 -7 19 3 34 2 34 -4 0 -5 15 -15 33 -23 l32 -13 -27 -8 c-32 -8
-38 -25 -9 -25 31 0 70 -38 77 -76 5 -30 2 -40 -20 -63 -14 -15 -26 -30 -26
-34 0 -5 18 -16 39 -25 l40 -17 -24 -55 c-15 -35 -20 -56 -13 -59 6 -2 17 4
24 13 20 29 27 0 20 -85 -8 -82 0 -99 24 -54 13 25 13 25 41 -32 16 -32 29
-63 29 -69 0 -17 -113 -64 -169 -71 -29 -3 -52 -12 -55 -19 -9 -23 11 -60 44
-84 36 -25 75 -84 96 -142 11 -32 11 -48 2 -84 -11 -39 -10 -50 5 -76 16 -28
16 -32 2 -48 -23 -26 -18 -58 14 -91 31 -31 75 -38 112 -19 18 10 18 13 4 33
-17 24 -20 123 -6 175 8 28 5 39 -25 89 -31 52 -74 152 -74 173 0 10 49 50 61
50 5 0 9 -11 9 -24 0 -13 3 -31 6 -40 5 -13 9 -12 25 7 l19 22 6 -23 c3 -12 9
-22 13 -22 3 1 17 24 31 53 28 57 58 78 46 33 -4 -15 -2 -26 4 -26 5 0 17 26
25 58 23 82 33 102 49 102 20 0 36 -31 37 -72 1 -21 3 -26 6 -13 6 25 22 45
36 45 15 0 0 -73 -29 -137 -15 -32 -30 -70 -34 -85 -8 -25 -6 -27 43 -38 76
-17 205 -83 262 -134 48 -41 50 -46 50 -94 0 -51 22 -89 66 -112 20 -12 88 19
88 40 1 8 -15 59 -34 114 l-34 98 -118 59 c-128 64 -213 121 -213 143 0 24 19
66 30 66 5 0 10 -13 10 -29 0 -17 5 -33 10 -36 6 -3 10 4 10 18 0 36 11 39 37
11 31 -34 37 -27 18 19 -27 66 -14 137 25 137 11 0 20 -1 20 -3 0 -1 -4 -17
-9 -34 -5 -18 -6 -35 -2 -38 14 -8 44 165 43 248 0 58 3 77 13 77 8 0 17 -10
21 -22 6 -21 7 -21 21 6 10 19 19 25 32 21 16 -5 19 3 24 63 5 68 23 122 39
122 4 0 8 -4 8 -10 0 -5 14 -26 32 -45 26 -31 33 -34 40 -21 16 28 34 17 55
-31 l21 -48 1 53 c1 56 8 63 34 34 34 -37 12 -150 -34 -183 -15 -11 -37 -35
-49 -55 l-22 -35 -22 20 c-43 41 -119 17 -122 -37 -1 -28 0 -29 78 -40 97 -14
122 -6 170 57 43 57 55 61 50 16 -4 -29 -2 -34 12 -29 10 4 25 -1 37 -12 19
-17 21 -16 60 22 61 59 72 85 64 157 -6 59 -5 64 24 101 17 21 31 44 31 51 0
7 -16 32 -36 56 -24 29 -34 50 -32 68 5 41 33 37 80 -13 70 -75 126 -61 247
64 43 44 95 87 115 95 20 9 35 19 32 24 -3 4 1 16 8 27 11 15 26 18 89 16 59
-2 78 1 91 14 23 22 16 37 -25 50 -19 7 -34 16 -34 21 0 6 43 49 96 96 159
141 199 198 207 294 3 38 0 60 -12 78 -23 36 -31 31 -33 -21 -3 -65 -39 -130
-113 -204 -57 -57 -173 -137 -144 -99 6 8 34 43 61 79 86 111 108 162 108 255
0 69 -4 86 -28 127 -23 40 -73 88 -90 88 -3 0 6 -20 20 -45z m-593 -645 c23
-8 25 -12 16 -36 -6 -15 -12 -45 -13 -67 -3 -39 -5 -42 -54 -62 -27 -11 -57
-25 -64 -32 -18 -15 -32 -6 -53 34 -17 33 -5 56 17 34 17 -17 25 -13 20 12 -2
12 0 40 6 62 8 35 10 37 16 18 10 -32 22 -28 35 12 12 37 28 43 74 25z m-156
-396 c21 -15 33 -74 14 -74 -14 0 -83 76 -76 83 12 12 38 8 62 -9z m12 -188
c0 -27 -25 -52 -62 -61 -32 -8 -36 5 -14 44 14 25 56 52 68 45 5 -3 8 -15 8
-28z m-1040 -192 c0 -8 -4 -12 -10 -9 -5 3 -10 10 -10 16 0 5 5 9 10 9 6 0 10
-7 10 -16z"/>
<path d="M1350 2135 c0 -28 -12 -32 -30 -10 -17 21 -43 19 -36 -2 3 -10 8 -35
11 -55 6 -33 13 -39 51 -54 24 -9 44 -23 44 -30 0 -19 -47 -52 -93 -66 -21 -6
-52 -24 -67 -39 -16 -16 -43 -30 -66 -34 -60 -10 -69 -14 -57 -26 8 -8 17 -8
31 0 14 8 23 8 27 1 11 -18 -15 -39 -52 -42 -35 -3 -61 -28 -29 -28 23 0 30
-19 9 -27 -10 -3 -60 -24 -110 -45 -76 -32 -103 -38 -145 -36 l-53 3 -6 80
c-7 98 -32 158 -86 206 -54 49 -102 64 -197 63 l-79 -1 -142 -144 c-151 -153
-161 -171 -145 -242 18 -82 72 -119 113 -78 12 11 16 21 9 21 -17 0 -44 46
-52 91 -6 33 -4 42 13 54 21 15 42 11 32 -6 -10 -15 -8 -90 2 -100 14 -14 37
18 62 86 27 71 46 95 78 95 l23 0 -27 -52 c-19 -38 -27 -70 -28 -113 -2 -39
-10 -75 -24 -102 -38 -76 -24 -154 34 -178 49 -21 54 -19 48 19 -3 19 0 49 6
67 10 30 18 36 72 53 43 13 66 16 77 9 29 -17 23 -29 -11 -25 -42 5 -54 -17
-31 -53 9 -14 14 -31 11 -39 -4 -10 2 -16 21 -18 33 -4 42 -34 13 -43 -24 -7
-28 -35 -6 -35 9 0 32 7 52 15 50 21 70 19 122 -15 26 -16 63 -36 84 -45 20
-8 37 -21 37 -28 0 -7 -14 -27 -30 -45 l-30 -33 24 -32 c13 -18 28 -50 32 -71
l7 -39 -42 7 c-49 8 -54 -7 -10 -29 19 -10 29 -22 27 -33 -3 -14 -13 -16 -59
-14 -50 3 -57 1 -62 -17 -5 -20 -2 -21 29 -15 23 4 42 1 59 -10 22 -14 23 -21
18 -64 -4 -41 -2 -50 12 -56 24 -9 27 -3 15 29 -17 43 -3 42 36 -3 19 -23 40
-42 45 -42 15 0 10 40 -6 46 -21 8 -19 21 5 27 29 8 25 21 -12 38 l-33 14 1
112 c1 102 3 116 30 170 21 43 39 64 69 80 51 29 55 28 55 -2 0 -14 9 -34 20
-45 18 -18 22 -18 54 -5 47 20 105 19 112 0 9 -22 23 -18 34 10 14 36 32 31
28 -7 -4 -44 16 -45 41 -3 28 48 61 60 135 46 33 -6 62 -8 65 -6 2 3 -1 23 -8
45 -20 68 -43 70 -146 14 -77 -41 -96 -48 -150 -48 -70 -1 -111 19 -121 59
-10 42 4 72 69 146 83 95 97 118 97 160 0 19 7 44 15 55 13 16 16 17 25 4 5
-8 10 -36 10 -62 0 -54 15 -72 24 -28 4 21 11 30 24 30 17 0 19 5 11 43 -4 23
-12 56 -18 74 -10 34 -6 44 14 36 10 -3 13 4 13 24 -1 32 17 73 32 73 5 0 19
-18 30 -40 18 -35 25 -40 55 -40 42 0 56 21 64 100 6 54 7 55 40 60 45 6 50
25 11 38 -38 14 -38 32 1 54 38 22 30 38 -20 38 -30 0 -42 6 -59 30 -20 27
-47 39 -123 54 -15 4 -29 14 -32 26 -8 29 -37 26 -37 -5z m-721 -244 c39 -19
80 -86 64 -102 -7 -7 -28 7 -64 39 -63 58 -88 72 -126 73 l-28 1 25 8 c32 11
86 3 129 -19z m-105 -147 c27 -10 18 -22 -24 -29 -28 -5 -46 -3 -56 6 -14 12
-14 14 3 20 23 10 57 11 77 3z m-26 -104 c12 -12 22 -24 22 -29 0 -17 -38 -41
-70 -43 -31 -3 -34 0 -41 31 -4 19 -5 40 -2 48 8 20 66 16 91 -7z m86 -76 c25
-10 19 -24 -11 -24 -16 0 -47 -9 -70 -20 -50 -22 -55 -12 -12 24 30 25 61 32
93 20z"/>
<path d="M8391 2092 c-13 -2 -45 -17 -71 -33 -53 -32 -76 -35 -104 -14 -20 15
-58 20 -69 9 -3 -4 -1 -16 5 -28 9 -17 8 -19 -3 -8 -7 6 -17 12 -21 12 -16 0
-7 -27 17 -50 32 -30 32 -70 0 -100 l-25 -24 26 -21 c43 -34 36 -68 -29 -133
-38 -40 -59 -70 -67 -99 -8 -34 -24 -54 -73 -94 -34 -29 -68 -60 -75 -71 -7
-10 -23 -18 -36 -18 -13 0 -51 -18 -85 -40 -34 -22 -67 -40 -74 -40 -24 0 -93
51 -117 87 -29 42 -38 125 -20 187 10 37 18 46 53 62 23 11 43 27 45 37 5 26
-28 22 -69 -9 -19 -14 -44 -30 -57 -35 -31 -12 -62 -83 -62 -144 0 -89 72
-199 156 -237 27 -13 31 -23 10 -31 -8 -3 -26 -31 -41 -61 -21 -42 -28 -73
-29 -126 l-2 -71 -65 -30 c-35 -17 -65 -32 -67 -33 -5 -5 58 -145 86 -191 28
-47 36 -50 105 -39 25 5 37 12 37 23 0 32 -26 54 -66 56 -35 2 -41 7 -53 38
-18 49 -10 64 51 92 43 20 58 34 81 74 40 72 57 82 115 66 70 -18 92 -35 92
-70 -1 -26 -21 -93 -44 -146 -5 -12 11 -24 76 -54 68 -32 94 -40 145 -40 34 0
64 3 68 7 4 4 1 24 -8 45 l-15 38 -59 -3 c-38 -2 -65 2 -77 11 -18 13 -18 16
4 123 21 101 22 171 5 214 -4 13 2 15 35 12 31 -3 58 4 116 32 106 50 108 50
99 -26 -11 -82 -10 -105 5 -123 18 -21 46 -19 71 6 20 20 21 29 16 111 -6 86
2 138 21 138 5 0 19 -9 32 -20 24 -21 38 -20 114 7 21 7 59 13 84 13 43 0 48
-3 111 -71 56 -59 72 -71 101 -72 l35 -2 0 48 0 49 -54 23 c-39 16 -57 30 -66
52 -13 31 -47 46 -140 59 -60 8 -97 21 -107 37 -4 7 -8 39 -8 72 0 79 -14 126
-46 156 -38 35 -55 73 -48 108 10 49 36 64 123 70 69 5 121 24 106 39 -2 3
-28 5 -57 6 -46 1 -53 4 -56 22 -2 16 7 25 38 39 49 22 90 68 90 100 0 36 -15
38 -82 15 -59 -20 -61 -20 -82 -2 -12 10 -31 16 -45 14z"/>
<path d="M9950 2023 c0 -15 -16 -48 -39 -77 -58 -77 -61 -87 -59 -184 l2 -90
-46 -68 c-25 -38 -56 -89 -69 -114 -18 -33 -53 -67 -139 -132 -63 -48 -132
-106 -152 -128 l-37 -41 -118 7 c-168 9 -272 -20 -363 -103 -29 -25 -40 -43
-40 -64 0 -39 21 -37 69 6 21 19 65 47 97 62 52 24 71 27 159 27 55 0 125 -5
156 -12 l56 -13 11 -50 c17 -74 16 -76 -36 -103 -69 -35 -75 -46 -80 -139 -5
-102 6 -120 69 -121 38 -1 44 2 47 21 2 15 -3 23 -18 28 -19 6 -21 12 -16 38
15 75 111 147 195 147 72 0 78 -8 56 -74 l-19 -55 24 -26 c36 -38 118 -75 167
-75 46 0 47 3 28 67 -2 6 -23 13 -47 15 -41 3 -43 5 -42 33 0 17 7 65 14 108
12 64 12 88 1 139 -10 50 -10 62 1 69 7 5 58 53 113 108 l100 100 45 -22 c37
-18 47 -29 56 -62 13 -48 37 -53 67 -13 17 23 18 30 7 57 -7 17 -32 47 -56 66
-24 20 -44 40 -44 44 0 11 95 31 151 31 28 0 63 -7 78 -15 27 -14 29 -13 33 8
14 77 -37 111 -160 104 -96 -6 -102 -1 -102 80 0 48 0 48 51 71 27 13 53 31
56 39 9 24 -11 117 -45 211 -17 46 -33 86 -37 90 -3 3 -16 -6 -28 -22 -27 -33
-48 -28 -76 20 -24 41 -41 44 -41 7z"/>
<path d="M11088 680 c12 -12 22 -24 22 -29 0 -19 -15 -18 -63 5 -29 13 -63 24
-77 24 l-25 0 30 -25 c38 -31 31 -31 -70 1 -108 34 -143 27 -57 -11 35 -16 62
-35 62 -43 0 -11 -3 -12 -14 -3 -8 7 -52 19 -97 27 -46 8 -92 20 -104 28 -27
18 -150 10 -182 -11 -12 -8 -27 -12 -33 -8 -5 3 -10 2 -10 -4 0 -5 5 -13 10
-16 16 -10 11 -25 -8 -25 -11 0 -27 9 -37 20 -24 27 -55 26 -55 -1 0 -17 -4
-20 -29 -14 -21 4 -30 2 -35 -11 -4 -11 -13 -14 -29 -10 -12 3 -37 0 -54 -6
-38 -14 -52 -5 -35 22 17 27 -6 27 -41 0 -14 -11 -30 -20 -36 -20 -14 0 -14
17 -1 25 6 3 10 10 10 16 0 19 -22 8 -69 -36 -32 -30 -57 -45 -75 -45 -38 0
-35 35 7 60 42 25 60 41 53 48 -3 3 -26 -9 -50 -26 -24 -18 -49 -32 -55 -32
-22 0 -22 23 0 46 12 13 19 27 14 31 -4 5 -10 3 -12 -4 -2 -7 -26 -28 -53 -47
l-49 -36 6 30 c7 35 0 37 -29 10 -12 -11 -30 -20 -40 -20 -21 0 -22 4 -8 31
17 31 -3 22 -45 -21 -21 -22 -43 -40 -47 -40 -4 0 -8 20 -8 45 0 55 -13 57
-40 6 -11 -22 -25 -43 -31 -47 -15 -9 -29 14 -29 49 0 38 -20 30 -35 -13 -15
-45 -34 -49 -41 -11 -8 37 -11 37 -40 10 -23 -21 -44 -19 -44 6 0 11 -6 11
-29 2 -22 -8 -36 -8 -55 1 -24 11 -26 9 -32 -23 -3 -19 -9 -35 -13 -35 -3 0
-15 17 -26 37 -29 52 -45 54 -45 4 0 -23 -4 -41 -9 -41 -12 0 -48 46 -56 71
-10 29 -23 23 -27 -13 -4 -40 -20 -46 -38 -13 -7 14 -22 25 -32 25 -17 0 -18
-5 -12 -45 8 -55 -9 -61 -33 -10 -25 52 -72 61 -53 9 23 -60 5 -70 -47 -24
-18 17 -38 30 -43 30 -17 0 -11 -36 10 -55 11 -10 20 -21 20 -24 0 -3 -22 -6
-50 -6 -43 0 -50 3 -50 20 0 15 -3 16 -12 7 -19 -19 -31 -14 -26 13 3 14 3 25
1 25 -10 0 -50 -24 -72 -44 l-24 -21 8 49 c6 47 6 49 -10 36 -10 -8 -26 -33
-35 -55 -9 -22 -25 -47 -34 -55 -16 -13 -18 -10 -16 41 2 74 3 73 -24 56 -27
-18 -36 -13 -36 20 0 32 -15 29 -30 -7 -17 -40 -26 -38 -43 13 l-15 42 -13
-33 c-16 -38 -36 -41 -49 -7 -10 27 -26 33 -33 13 -3 -10 -9 -8 -24 4 -36 32
-46 23 -40 -33 8 -65 -12 -63 -33 4 -13 40 -19 47 -41 47 -15 0 -32 7 -39 15
-32 38 -36 9 -14 -90 6 -26 5 -28 -8 -17 -9 7 -28 39 -43 70 -25 52 -28 55
-36 34 l-8 -22 -33 20 c-41 25 -50 25 -79 1 l-23 -19 27 -36 c26 -33 29 -56 7
-56 -5 0 -30 27 -55 60 -25 33 -50 60 -56 60 -5 0 -9 -16 -9 -35 0 -19 -4 -35
-9 -35 -5 0 -23 17 -40 39 -40 51 -105 66 -80 19 16 -30 4 -33 -34 -9 -19 11
-42 21 -51 21 -18 0 -22 -25 -6 -35 16 -10 11 -25 -8 -25 -10 0 -29 11 -42 25
-31 33 -60 33 -60 0 0 -30 3 -29 -50 -10 -47 17 -106 20 -114 6 -3 -4 3 -16
14 -26 23 -21 26 -45 6 -45 -8 0 -33 16 -56 35 -65 54 -94 45 -44 -14 42 -50
22 -60 -24 -13 -40 41 -82 56 -82 28 0 -7 7 -19 15 -26 14 -12 21 -40 9 -40
-15 0 -91 61 -103 83 -14 26 -89 55 -110 42 -23 -14 -10 -33 27 -39 21 -3 48
-16 60 -29 l22 -24 -25 -11 c-21 -10 -27 -9 -32 3 -7 20 -63 50 -63 35 0 -6 5
-20 11 -32 13 -25 5 -35 -16 -18 -8 7 -15 28 -15 47 0 60 -11 70 -82 69 -61
-1 -63 -2 -62 -26 1 -14 5 -35 9 -47 6 -19 4 -23 -14 -23 -13 0 -30 14 -46 40
-30 47 -65 55 -65 15 0 -32 -18 -33 -26 -1 -5 20 -13 24 -62 29 -31 3 -74 9
-95 13 l-37 7 15 -36 c21 -52 2 -55 -41 -7 -20 22 -46 40 -57 40 -16 0 -18 -3
-9 -12 7 -7 12 -19 12 -26 0 -10 -9 -6 -25 12 -25 27 -65 35 -65 13 0 -7 7
-23 16 -35 23 -34 8 -40 -36 -14 -48 27 -60 28 -60 2 0 -24 -1 -24 -45 -6 -33
14 -35 14 -35 -3 0 -10 20 -35 45 -55 25 -21 45 -42 45 -48 0 -22 -65 3 -120
46 -93 73 -123 81 -94 24 8 -16 14 -34 12 -39 -2 -5 -39 9 -83 31 l-80 41 -6
-28 c-3 -18 -10 -27 -20 -24 -8 2 -45 8 -84 12 -38 4 -80 10 -91 14 -12 4 -25
2 -28 -4 -4 -6 -22 -11 -40 -11 -25 0 -35 -5 -39 -20 -12 -45 -67 -13 -67 39
0 31 -15 25 -39 -15 -24 -41 -38 -38 -47 11 -10 57 -54 74 -54 21 0 -22 -17
-46 -32 -46 -5 0 -17 20 -28 45 -21 50 -50 61 -50 20 0 -40 -36 -33 -57 12
-10 21 -27 39 -37 41 -17 4 -18 0 -13 -34 13 -80 13 -79 -8 -79 -14 0 -27 15
-46 54 -14 29 -32 57 -40 62 -26 16 -39 9 -39 -21 0 -40 -31 -40 -77 0 -40 35
-68 39 -76 9 -4 -15 -11 -20 -22 -15 -9 3 -34 9 -56 12 -37 6 -39 5 -39 -20 0
-32 -3 -32 -44 -1 -44 33 -53 32 -48 -10 6 -47 -8 -44 -41 10 -24 41 -61 69
-79 59 -3 -2 -2 -19 3 -37 12 -42 11 -47 -3 -47 -7 0 -29 18 -48 39 -19 22
-44 41 -55 43 -20 3 -20 1 -8 -44 7 -25 -14 -22 -53 7 -18 14 -42 25 -53 25
-24 0 -25 -4 -11 -30 16 -29 -4 -33 -49 -10 -52 26 -65 26 -51 0 9 -17 7 -20
-15 -26 -24 -6 -53 -2 -89 12 -12 5 -16 0 -16 -20 0 -30 -5 -31 -53 -11 -20 8
-39 15 -42 15 -11 0 -4 -28 10 -40 8 -7 15 -21 15 -32 0 -22 4 -22 -88 -1 -21
5 -22 3 -12 -21 15 -41 13 -45 -25 -39 -40 6 -44 -2 -14 -33 12 -12 18 -27 15
-32 -9 -15 -113 12 -139 35 -16 15 -32 19 -62 16 -39 -4 -41 -3 -60 39 -24 51
-51 61 -65 24 -13 -36 -36 -32 -62 9 -28 43 -48 45 -48 5 0 -16 -2 -30 -5 -30
-2 0 -32 18 -66 40 -63 41 -74 41 -81 5 -4 -26 -38 -30 -82 -10 -31 15 -37 15
-65 1 -16 -9 -44 -16 -61 -16 -35 0 -38 -10 -10 -35 21 -19 26 -35 11 -35 -5
0 -31 18 -57 40 -57 47 -94 53 -94 15 0 -29 -8 -30 -57 -10 -43 18 -38 18 -57
-1 -15 -14 -19 -13 -47 10 -43 36 -69 35 -69 -4 0 -38 -13 -38 -70 0 -75 50
-142 31 -90 -26 31 -32 18 -30 -34 5 -24 17 -55 33 -69 37 -22 5 -27 3 -27
-13 0 -18 -12 -21 -102 -32 -134 -16 -133 -16 -114 -43 27 -38 21 -51 -17 -32
-34 18 -133 24 -178 12 -24 -7 -27 -5 -33 22 -7 38 -18 38 -49 0 -28 -33 -40
-39 -31 -15 8 21 -2 19 -27 -6 -30 -30 -45 -12 -28 35 7 19 9 39 5 43 -5 5
-11 2 -13 -4 -17 -49 -63 -66 -63 -24 0 27 -28 47 -42 33 -17 -17 -28 -15 -28
7 0 36 -25 44 -66 21 -50 -26 -57 -25 -50 7 3 16 2 34 -3 42 -7 11 -17 6 -46
-22 -43 -42 -57 -40 -48 6 6 28 4 30 -9 19 -9 -7 -18 -26 -22 -42 -7 -39 -26
-39 -26 1 0 25 -3 29 -19 24 -15 -4 -20 0 -23 17 -3 25 -32 32 -35 8 -12 -93
-26 -116 -39 -62 -11 46 -33 82 -47 76 -8 -3 -22 -22 -32 -42 l-19 -37 -6 39
c-6 47 -26 58 -40 22 -13 -34 -26 -33 -45 4 -21 40 -35 30 -35 -25 0 -24 -4
-46 -9 -50 -16 -9 -31 30 -31 77 0 47 -20 85 -38 74 -7 -4 -9 -25 -5 -56 5
-41 3 -50 -10 -50 -9 0 -22 20 -33 51 -10 27 -25 56 -33 62 -12 10 -13 5 -8
-34 l6 -46 -46 23 c-25 13 -52 29 -59 35 -12 9 -14 5 -14 -25 0 -52 -26 -47
-50 9 -14 32 -25 45 -40 45 -11 0 -20 -7 -20 -15 0 -22 -11 -19 -76 20 -31 19
-60 33 -62 30 -3 -3 1 -23 8 -45 19 -57 4 -62 -38 -12 -20 23 -43 42 -49 42
-15 0 -16 -2 -4 -33 16 -40 1 -39 -45 3 -24 22 -53 40 -64 40 -24 0 -26 -13
-5 -30 16 -13 20 -40 6 -40 -4 0 -35 18 -67 40 -33 22 -70 40 -84 40 -96 -1
-139 -124 -106 -303 15 -77 15 -90 1 -122 -12 -30 -18 -35 -35 -30 -11 3 -25
3 -31 -1 -7 -4 12 -18 45 -34 56 -26 60 -26 229 -23 95 2 277 10 405 18 281
18 422 19 422 4 0 -7 105 -9 357 -5 197 4 383 6 413 6 30 0 102 1 160 2 58 2
339 2 625 1 286 -2 1510 -4 2720 -5 1734 -1 2262 1 2495 12 322 15 452 16
1215 6 620 -7 513 -7 870 0 250 5 319 3 410 -10 116 -18 154 -16 380 11 164
19 501 13 650 -12 55 -10 114 -17 130 -16 17 0 259 5 539 11 309 6 513 13 519
19 6 6 16 52 24 103 7 51 18 105 24 120 9 22 8 30 -6 44 -13 13 -15 27 -11 58
5 29 2 48 -8 61 -14 19 -15 19 -27 -8 -16 -36 -32 -34 -27 3 6 38 -7 48 -32
25 -24 -22 -64 -15 -120 20 -56 35 -70 33 -63 -10 7 -43 -16 -49 -41 -10 -18
28 -47 33 -65 11 -22 -26 -62 -29 -85 -7 -13 12 -36 21 -55 21 -18 0 -41 5
-52 10 -15 9 -19 7 -19 -5 0 -9 -5 -25 -11 -36 -10 -19 -10 -19 -41 2 -26 19
-34 20 -50 10 -16 -10 -23 -9 -37 3 -14 13 -121 55 -142 56 -3 0 -4 -11 -2
-24 4 -21 2 -23 -21 -19 -23 5 -26 2 -26 -21 0 -34 -10 -33 -45 4 -34 35 -51
38 -60 10 -6 -20 -7 -20 -37 5 -16 14 -34 25 -39 25 -16 0 -9 -33 12 -56 12
-12 19 -28 17 -36 -3 -8 -25 7 -60 40 -49 46 -78 63 -78 46 0 -3 11 -19 25
-36 25 -29 33 -58 16 -58 -5 0 -15 8 -22 17 -17 20 -128 93 -142 93 -6 0 -3
-8 6 -18 10 -10 17 -24 17 -30 0 -14 -24 -6 -70 25 -39 26 -70 32 -51 10 10
-13 6 -27 -9 -27 -4 0 -24 14 -45 30 -44 35 -83 43 -47 10z m-4498 -120 c0
-11 -4 -20 -9 -20 -19 0 -64 47 -57 58 11 18 66 -14 66 -38z m3251 -63 c-8 -8
-11 0 -10 29 1 39 1 39 11 11 7 -21 7 -32 -1 -40z m-3143 41 c-7 -19 -38 -22
-38 -4 0 10 9 16 21 16 12 0 19 -5 17 -12z"/>
</g>
</svg>
